<svg width="30" height="40" viewBox="0 0 30 40" fill="none" xmlns="http://www.w3.org/2000/svg">
<path fill-rule="evenodd" clip-rule="evenodd" d="M4.92194 26.4354L4.23497 25.7229C2.11379 23.5227 0.941752 20.5753 0.972209 17.5177C1.03624 11.0897 6.2905 5.9334 12.7079 6.00065L27.8514 6.15935C26.6406 7.33242 25.5273 8.94806 24.5019 11.0031C24.2262 11.5556 23.9706 12.1648 23.6984 12.8976C23.5557 13.2814 23.4272 13.6457 23.2195 14.2479C21.8165 18.315 21.0895 19.4607 19.4933 19.4603C18.1351 19.46 17.6009 19.2755 16.5775 18.6431C16.4955 18.5924 16.4955 18.5924 16.4103 18.5404C15.4088 17.9309 14.5933 17.6685 13.2357 17.6681C11.1487 17.6676 10.2419 18.6867 7.78836 22.6187C6.98004 23.9142 6.4782 24.6575 5.88827 25.3834C5.5685 25.7768 5.24933 26.1258 4.92388 26.4343C4.92388 26.4343 4.92428 26.4337 4.92194 26.4354Z" fill="white"/>
<path fill-rule="evenodd" clip-rule="evenodd" d="M13.2332 18.561C16.3606 18.5618 15.9153 20.3524 19.4909 20.3533C23.0665 20.3542 23.5122 14.982 25.2991 11.4009C26.4889 9.01655 27.7858 7.27306 29.1897 6.17048L29.1363 22.7935C29.1252 25.9358 27.8462 28.9394 25.5901 31.1217C20.9745 35.5862 13.6177 35.4558 9.15833 30.8304L8.02748 29.6575L3.03003 34.4913C2.31994 35.1782 1.18813 35.1581 0.502068 34.4465C-0.183994 33.7349 -0.164512 32.6013 0.545581 31.9144L5.54303 27.0806C8.76632 24.015 10.1434 18.5603 13.2332 18.561Z" fill="white"/>
</svg>
