<svg width="200" height="77" viewBox="0 0 200 77" fill="none" xmlns="http://www.w3.org/2000/svg">
<g clip-path="url(#clip0)">
<path fill-rule="evenodd" clip-rule="evenodd" d="M32.0928 41.2113L31.6133 40.714C30.133 39.1786 29.3155 37.1214 29.3373 34.987C29.3832 30.4999 33.052 26.8995 37.5317 26.9453L48.1027 27.0532C47.2572 27.8723 46.4798 29.0003 45.7636 30.435C45.571 30.8207 45.3925 31.246 45.2023 31.7576C45.1027 32.0256 45.0129 32.2799 44.8678 32.7003C43.8877 35.5396 43.38 36.3395 42.2657 36.3395C41.3176 36.3396 40.9448 36.2109 40.2305 35.7696C40.1732 35.7343 40.1732 35.7343 40.1138 35.6979C39.4148 35.2727 38.8456 35.0896 37.8979 35.0897C36.441 35.0897 35.8078 35.8012 34.0944 38.5465C33.5299 39.4509 33.1794 39.9699 32.7675 40.4767C32.5442 40.7514 32.3213 40.9951 32.0941 41.2105C32.0949 41.2098 32.0944 41.2101 32.0928 41.2113Z" fill="#00C639"/>
<path fill-rule="evenodd" clip-rule="evenodd" d="M37.8975 35.7148C40.0806 35.7147 39.7694 36.9647 42.2653 36.9647C44.7612 36.9646 45.0733 33.2146 46.3213 30.7146C47.1523 29.05 48.0579 27.8328 49.0381 27.0629L48.9977 38.6662C48.9893 40.8595 48.096 42.9564 46.5207 44.4801C43.298 47.5973 38.1628 47.5077 35.0509 44.2799L34.2617 43.4614L30.7724 46.8365C30.2766 47.316 29.4866 47.3022 29.0078 46.8057C28.529 46.3091 28.5429 45.5178 29.0387 45.0382L32.528 41.6631C34.7785 39.5227 35.7408 35.7149 37.8975 35.7148Z" fill="url(#paint0_linear)"/>
<path d="M157.595 42.6394V31.6732C157.595 31.1828 157.834 30.9376 158.313 30.9376H161.674C162.751 30.9376 163.541 31.0488 164.043 31.2712C164.687 31.5392 165.194 31.9655 165.565 32.55C165.935 33.1345 166.121 33.8402 166.121 34.6671C166.121 35.4198 165.937 36.1099 165.569 36.7372C165.201 37.3645 164.698 37.8064 164.06 38.063V38.1058C164.162 38.2313 164.296 38.4451 164.462 38.7473L166.506 42.5025C166.597 42.6565 166.642 42.7934 166.642 42.9131C166.642 42.993 166.622 43.0643 166.583 43.127C166.486 43.2924 166.292 43.3751 166.001 43.3751H165.052C164.67 43.3751 164.385 43.2068 164.197 42.8704L162.007 38.7302H159.835V42.6394C159.835 43.1298 159.596 43.3751 159.117 43.3751H158.313C157.834 43.3751 157.595 43.1298 157.595 42.6394ZM159.835 36.7714H161.871C162.475 36.7714 162.952 36.5932 163.303 36.2368C163.654 35.8803 163.829 35.397 163.829 34.7868C163.829 33.9257 163.501 33.3612 162.845 33.0932C162.532 32.9506 162.084 32.8793 161.503 32.8793H159.835V36.7714ZM139.874 37.1019C139.874 35.9263 140.145 34.8548 140.686 33.8875C141.228 32.9201 141.989 32.1554 142.967 31.5933C143.946 31.0311 145.048 30.7501 146.274 30.7501C147.499 30.7501 148.601 31.0311 149.58 31.5933C150.559 32.1554 151.318 32.9201 151.857 33.8875C152.396 34.8548 152.665 35.9263 152.665 37.1019C152.665 38.3118 152.396 39.4133 151.857 40.4063C151.318 41.3993 150.559 42.184 149.58 42.7604C148.601 43.3369 147.499 43.6251 146.274 43.6251C145.048 43.6251 143.946 43.3369 142.967 42.7604C141.989 42.184 141.228 41.3993 140.686 40.4063C140.145 39.4133 139.874 38.3118 139.874 37.1019ZM142.251 37.1019C142.251 38.3746 142.637 39.4347 143.408 40.2822C144.18 41.1297 145.156 41.5534 146.336 41.5534C147.516 41.5534 148.491 41.1297 149.259 40.2822C150.028 39.4347 150.413 38.3746 150.413 37.1019C150.413 35.8806 150.028 34.862 149.259 34.0458C148.491 33.2297 147.516 32.8217 146.336 32.8217C145.156 32.8217 144.18 33.2297 143.408 34.0458C142.637 34.862 142.251 35.8806 142.251 37.1019ZM124.586 37.1362C124.586 36.2402 124.744 35.3998 125.06 34.6151C125.376 33.8304 125.814 33.1541 126.372 32.5863C126.93 32.0184 127.608 31.5704 128.405 31.2423C129.203 30.9141 130.063 30.7501 130.985 30.7501C132.518 30.7501 133.873 31.1667 135.052 31.9999C135.257 32.1597 135.36 32.3395 135.36 32.5392C135.36 32.6876 135.303 32.8474 135.189 33.0186L134.873 33.5237C134.73 33.7519 134.557 33.8661 134.352 33.8661C134.209 33.8661 134.05 33.809 133.873 33.6949C132.979 33.1128 132.048 32.8217 131.079 32.8217C130.424 32.8217 129.829 32.9373 129.294 33.1684C128.758 33.3995 128.318 33.712 127.974 34.1058C127.629 34.4996 127.366 34.9533 127.183 35.4669C127.001 35.9805 126.91 36.5255 126.91 37.1019C126.91 37.6898 127.004 38.2491 127.192 38.7798C127.38 39.3106 127.648 39.7828 127.995 40.1966C128.342 40.6103 128.784 40.9399 129.319 41.1853C129.855 41.4307 130.447 41.5534 131.096 41.5534C132.122 41.5534 133.136 41.191 134.138 40.4662C134.32 40.335 134.488 40.2693 134.642 40.2693C134.836 40.2693 135.007 40.3749 135.155 40.5861L135.505 41.0655C135.63 41.231 135.693 41.3908 135.693 41.5449C135.693 41.7332 135.596 41.9101 135.402 42.0756C134.121 43.1086 132.657 43.6251 131.011 43.6251C129.735 43.6251 128.606 43.3383 127.623 42.7647C126.641 42.1912 125.889 41.415 125.368 40.4363C124.847 39.4575 124.586 38.3575 124.586 37.1362ZM116.974 42.6394V31.6732C116.974 31.1828 117.214 30.9376 117.694 30.9376H118.5C118.98 30.9376 119.22 31.1828 119.22 31.6732V42.6394C119.22 43.1298 118.98 43.3751 118.5 43.3751H117.694C117.214 43.3751 116.974 43.1298 116.974 42.6394ZM102.876 41.7589C102.887 41.6276 102.95 41.4878 103.064 41.3394L103.458 40.783C103.595 40.5946 103.743 40.4891 103.903 40.4662C103.926 40.4605 103.951 40.4577 103.98 40.4577C104.122 40.4577 104.285 40.5119 104.468 40.6203C105.335 41.231 106.176 41.5363 106.992 41.5363C107.562 41.5363 108.015 41.405 108.348 41.1425C108.682 40.88 108.849 40.5376 108.849 40.1152C108.849 39.8641 108.783 39.6344 108.652 39.4261C108.521 39.2178 108.343 39.0366 108.117 38.8825C107.892 38.7284 107.634 38.5801 107.343 38.4374C107.052 38.2947 106.747 38.1549 106.427 38.0179C106.108 37.881 105.788 37.7354 105.469 37.5813C105.149 37.4272 104.844 37.2489 104.553 37.0463C104.262 36.8437 104.004 36.6211 103.779 36.3786C103.553 36.136 103.375 35.8421 103.244 35.4969C103.113 35.1516 103.047 34.7735 103.047 34.3626C103.047 33.6492 103.232 33.0157 103.603 32.4622C103.974 31.9086 104.476 31.4848 105.109 31.1909C105.743 30.897 106.453 30.7501 107.24 30.7501C107.902 30.7501 108.521 30.8485 109.097 31.0454C109.673 31.2423 110.124 31.4606 110.449 31.7003C110.683 31.8658 110.8 32.0598 110.8 32.2824C110.8 32.4136 110.757 32.5535 110.672 32.7019L110.355 33.2754C110.224 33.5322 110.044 33.6606 109.816 33.6606C109.679 33.6606 109.528 33.615 109.362 33.5237C109.14 33.3924 108.946 33.2854 108.78 33.2026C108.615 33.1199 108.385 33.0386 108.092 32.9587C107.798 32.8788 107.503 32.8388 107.206 32.8388C106.63 32.8388 106.17 32.9672 105.828 33.224C105.486 33.4809 105.315 33.8204 105.315 34.2427C105.315 34.5566 105.422 34.8348 105.636 35.0774C105.85 35.3199 106.126 35.5268 106.466 35.698C106.805 35.8692 107.18 36.039 107.591 36.2074C108.002 36.3757 108.414 36.5641 108.828 36.7724C109.241 36.9807 109.618 37.2161 109.957 37.4786C110.297 37.7411 110.573 38.0821 110.787 38.5016C111.001 38.9211 111.108 39.399 111.108 39.9355C111.108 40.4434 111.015 40.9199 110.83 41.3651C110.645 41.8102 110.379 42.2012 110.034 42.5379C109.689 42.8746 109.254 43.14 108.729 43.334C108.204 43.528 107.625 43.6251 106.992 43.6251C106.205 43.6251 105.474 43.4924 104.801 43.227C104.128 42.9616 103.586 42.672 103.175 42.3581C103.067 42.2725 102.987 42.184 102.936 42.0927C102.896 42.0242 102.876 41.9415 102.876 41.8445C102.87 41.8159 102.87 41.7874 102.876 41.7589ZM90.08 42.6394V31.6732C90.08 31.1828 90.318 30.9376 90.7939 30.9376H96.7435C96.9758 30.9376 97.1557 31.0017 97.2832 31.13C97.4107 31.2583 97.4745 31.4394 97.4745 31.6732V32.1608C97.4745 32.6398 97.2308 32.8793 96.7435 32.8793H92.3068V36.1384H95.7576C96.2449 36.1384 96.4885 36.3779 96.4885 36.8569V37.3445C96.4885 37.8406 96.2449 38.0887 95.7576 38.0887H92.3068V41.4333H97.024C97.5113 41.4333 97.7549 41.6728 97.7549 42.1518V42.6394C97.7549 43.1298 97.5113 43.3751 97.024 43.3751H90.7939C90.318 43.3751 90.08 43.1298 90.08 42.6394ZM75.2916 42.6394V31.6732C75.2916 31.1828 75.5311 30.9376 76.01 30.9376H79.3708C80.4483 30.9376 81.2379 31.0488 81.7396 31.2712C82.3839 31.5392 82.8913 31.9655 83.2618 32.55C83.6324 33.1345 83.8177 33.8402 83.8177 34.6671C83.8177 35.4198 83.6338 36.1099 83.2661 36.7372C82.8984 37.3645 82.3953 37.8064 81.7567 38.063V38.1058C81.8594 38.2313 81.9933 38.4451 82.1587 38.7473L84.2025 42.5025C84.2938 42.6565 84.3394 42.7934 84.3394 42.9131C84.3394 42.993 84.3194 43.0643 84.2795 43.127C84.1826 43.2924 83.9887 43.3751 83.698 43.3751H82.7487C82.3668 43.3751 82.0817 43.2068 81.8936 42.8704L79.7043 38.7302H77.5322V42.6394C77.5322 43.1298 77.2927 43.3751 76.8139 43.3751H76.01C75.5311 43.3751 75.2916 43.1298 75.2916 42.6394ZM77.5322 36.7714H79.5675C80.1718 36.7714 80.6493 36.5932 80.9999 36.2368C81.3505 35.8803 81.5258 35.397 81.5258 34.7868C81.5258 33.9257 81.198 33.3612 80.5424 33.0932C80.2288 32.9506 79.7813 32.8793 79.1998 32.8793H77.5322V36.7714ZM58.9434 37.1362C58.9434 36.2402 59.1014 35.3998 59.4175 34.6151C59.7337 33.8304 60.1708 33.1541 60.729 32.5863C61.2872 32.0184 61.965 31.5704 62.7624 31.2423C63.5598 30.9141 64.4199 30.7501 65.3426 30.7501C66.8748 30.7501 68.2304 31.1667 69.4094 31.9999C69.6145 32.1597 69.717 32.3395 69.717 32.5392C69.717 32.6876 69.66 32.8474 69.5461 33.0186L69.23 33.5237C69.0876 33.7519 68.9139 33.8661 68.7088 33.8661C68.5664 33.8661 68.407 33.809 68.2304 33.6949C67.3361 33.1128 66.4049 32.8217 65.4366 32.8217C64.7816 32.8217 64.1864 32.9373 63.651 33.1684C63.1155 33.3995 62.6755 33.712 62.3309 34.1058C61.9863 34.4996 61.7229 34.9533 61.5407 35.4669C61.3584 35.9805 61.2673 36.5255 61.2673 37.1019C61.2673 37.6898 61.3612 38.2491 61.5492 38.7798C61.7372 39.3106 62.0049 39.7828 62.3523 40.1966C62.6998 40.6103 63.1412 40.9399 63.6766 41.1853C64.212 41.4307 64.8044 41.5534 65.4537 41.5534C66.4789 41.5534 67.4928 41.191 68.4953 40.4662C68.6775 40.335 68.8455 40.2693 68.9993 40.2693C69.193 40.2693 69.3639 40.3749 69.512 40.5861L69.8622 41.0655C69.9876 41.231 70.0502 41.3908 70.0502 41.5449C70.0502 41.7332 69.9534 41.9101 69.7597 42.0756C68.4782 43.1086 67.0143 43.6251 65.3682 43.6251C64.0924 43.6251 62.9632 43.3383 61.9807 42.7647C60.9981 42.1912 60.2463 41.415 59.7251 40.4363C59.2039 39.4575 58.9434 38.3575 58.9434 37.1362Z" fill="#2C2C2E"/>
</g>
<defs>
<linearGradient id="paint0_linear" x1="48.5064" y1="46.7707" x2="37.809" y2="35.7113" gradientUnits="userSpaceOnUse">
<stop stop-color="#00C639"/>
<stop offset="1" stop-color="#006E20"/>
</linearGradient>
<clipPath id="clip0">
<rect width="153" height="30" fill="white" transform="translate(24 22)"/>
</clipPath>
</defs>
</svg>
