<svg width="1170" height="680" viewBox="0 0 1170 680" fill="none" xmlns="http://www.w3.org/2000/svg">
<path d="M1031 600L189 600C161.386 600 139 577.614 139 550L139 250C139 222.386 161.386 200 189 200L981 200C1008.61 200 1031 222.386 1031 250L1031 600Z" fill="#4CB029" fill-opacity="0.2"/>
<path d="M1039.12 670.441C1039.12 669.58 1038.42 668.882 1037.56 668.882C1036.7 668.882 1036 669.58 1036 670.441C1036 671.302 1036.7 672 1037.56 672C1038.42 672 1039.12 671.302 1039.12 670.441Z" fill="#017D25"/>
<path d="M1052.84 670.441C1052.84 669.58 1052.15 668.882 1051.28 668.882C1050.42 668.882 1049.72 669.58 1049.72 670.441C1049.72 671.302 1050.42 672 1051.28 672C1052.15 672 1052.84 671.302 1052.84 670.441Z" fill="#017D25"/>
<path d="M1066.57 670.441C1066.57 669.58 1065.87 668.882 1065.01 668.882C1064.15 668.882 1063.45 669.58 1063.45 670.441C1063.45 671.302 1064.15 672 1065.01 672C1065.87 672 1066.57 671.302 1066.57 670.441Z" fill="#017D25"/>
<path d="M1080.29 670.441C1080.29 669.58 1079.6 668.882 1078.74 668.882C1077.87 668.882 1077.18 669.58 1077.18 670.441C1077.18 671.302 1077.87 672 1078.74 672C1079.6 672 1080.29 671.302 1080.29 670.441Z" fill="#017D25"/>
<path d="M1094.02 670.441C1094.02 669.58 1093.32 668.882 1092.46 668.882C1091.6 668.882 1090.9 669.58 1090.9 670.441C1090.9 671.302 1091.6 672 1092.46 672C1093.32 672 1094.02 671.302 1094.02 670.441Z" fill="#017D25"/>
<path d="M1107.75 670.441C1107.75 669.58 1107.05 668.882 1106.19 668.882C1105.33 668.882 1104.63 669.58 1104.63 670.441C1104.63 671.302 1105.33 672 1106.19 672C1107.05 672 1107.75 671.302 1107.75 670.441Z" fill="#017D25"/>
<path d="M1039.12 655.343C1039.12 654.481 1038.42 653.783 1037.56 653.783C1036.7 653.783 1036 654.481 1036 655.343C1036 656.204 1036.7 656.902 1037.56 656.902C1038.42 656.902 1039.12 656.204 1039.12 655.343Z" fill="#017D25"/>
<path d="M1052.84 655.343C1052.84 654.481 1052.15 653.783 1051.28 653.783C1050.42 653.783 1049.72 654.481 1049.72 655.343C1049.72 656.204 1050.42 656.902 1051.28 656.902C1052.15 656.902 1052.84 656.204 1052.84 655.343Z" fill="#017D25"/>
<path d="M1066.57 655.343C1066.57 654.481 1065.87 653.783 1065.01 653.783C1064.15 653.783 1063.45 654.481 1063.45 655.343C1063.45 656.204 1064.15 656.902 1065.01 656.902C1065.87 656.902 1066.57 656.204 1066.57 655.343Z" fill="#017D25"/>
<path d="M1080.29 655.343C1080.29 654.481 1079.6 653.783 1078.74 653.783C1077.87 653.783 1077.18 654.481 1077.18 655.343C1077.18 656.204 1077.87 656.902 1078.74 656.902C1079.6 656.902 1080.29 656.204 1080.29 655.343Z" fill="#017D25"/>
<path d="M1094.02 655.343C1094.02 654.481 1093.32 653.783 1092.46 653.783C1091.6 653.783 1090.9 654.481 1090.9 655.343C1090.9 656.204 1091.6 656.902 1092.46 656.902C1093.32 656.902 1094.02 656.204 1094.02 655.343Z" fill="#017D25"/>
<path d="M1107.75 655.343C1107.75 654.481 1107.05 653.783 1106.19 653.783C1105.33 653.783 1104.63 654.481 1104.63 655.343C1104.63 656.204 1105.33 656.902 1106.19 656.902C1107.05 656.902 1107.75 656.204 1107.75 655.343Z" fill="#017D25"/>
<path d="M1039.12 640.245C1039.12 639.384 1038.42 638.686 1037.56 638.686C1036.7 638.686 1036 639.384 1036 640.245C1036 641.106 1036.7 641.804 1037.56 641.804C1038.42 641.804 1039.12 641.106 1039.12 640.245Z" fill="#017D25"/>
<path d="M1052.84 640.245C1052.84 639.384 1052.15 638.686 1051.28 638.686C1050.42 638.686 1049.72 639.384 1049.72 640.245C1049.72 641.106 1050.42 641.804 1051.28 641.804C1052.15 641.804 1052.84 641.106 1052.84 640.245Z" fill="#017D25"/>
<path d="M1066.57 640.245C1066.57 639.384 1065.87 638.686 1065.01 638.686C1064.15 638.686 1063.45 639.384 1063.45 640.245C1063.45 641.106 1064.15 641.804 1065.01 641.804C1065.87 641.804 1066.57 641.106 1066.57 640.245Z" fill="#017D25"/>
<path d="M1080.29 640.245C1080.29 639.384 1079.6 638.686 1078.74 638.686C1077.87 638.686 1077.18 639.384 1077.18 640.245C1077.18 641.106 1077.87 641.804 1078.74 641.804C1079.6 641.804 1080.29 641.106 1080.29 640.245Z" fill="#017D25"/>
<path d="M1094.02 640.245C1094.02 639.384 1093.32 638.686 1092.46 638.686C1091.6 638.686 1090.9 639.384 1090.9 640.245C1090.9 641.106 1091.6 641.804 1092.46 641.804C1093.32 641.804 1094.02 641.106 1094.02 640.245Z" fill="#017D25"/>
<path d="M1107.75 640.245C1107.75 639.384 1107.05 638.686 1106.19 638.686C1105.33 638.686 1104.63 639.384 1104.63 640.245C1104.63 641.106 1105.33 641.804 1106.19 641.804C1107.05 641.804 1107.75 641.106 1107.75 640.245Z" fill="#017D25"/>
<path d="M1039.12 625.147C1039.12 624.286 1038.42 623.588 1037.56 623.588C1036.7 623.588 1036 624.286 1036 625.147C1036 626.008 1036.7 626.706 1037.56 626.706C1038.42 626.706 1039.12 626.008 1039.12 625.147Z" fill="#017D25"/>
<path d="M1052.84 625.147C1052.84 624.286 1052.15 623.588 1051.28 623.588C1050.42 623.588 1049.72 624.286 1049.72 625.147C1049.72 626.008 1050.42 626.706 1051.28 626.706C1052.15 626.706 1052.84 626.008 1052.84 625.147Z" fill="#017D25"/>
<path d="M1066.57 625.147C1066.57 624.286 1065.87 623.588 1065.01 623.588C1064.15 623.588 1063.45 624.286 1063.45 625.147C1063.45 626.008 1064.15 626.706 1065.01 626.706C1065.87 626.706 1066.57 626.008 1066.57 625.147Z" fill="#017D25"/>
<path d="M1080.29 625.147C1080.29 624.286 1079.6 623.588 1078.74 623.588C1077.87 623.588 1077.18 624.286 1077.18 625.147C1077.18 626.008 1077.87 626.706 1078.74 626.706C1079.6 626.706 1080.29 626.008 1080.29 625.147Z" fill="#017D25"/>
<path d="M1094.02 625.147C1094.02 624.286 1093.32 623.588 1092.46 623.588C1091.6 623.588 1090.9 624.286 1090.9 625.147C1090.9 626.008 1091.6 626.706 1092.46 626.706C1093.32 626.706 1094.02 626.008 1094.02 625.147Z" fill="#017D25"/>
<path d="M1107.75 625.147C1107.75 624.286 1107.05 623.588 1106.19 623.588C1105.33 623.588 1104.63 624.286 1104.63 625.147C1104.63 626.008 1105.33 626.706 1106.19 626.706C1107.05 626.706 1107.75 626.008 1107.75 625.147Z" fill="#017D25"/>
<path d="M1039.12 610.049C1039.12 609.188 1038.42 608.49 1037.56 608.49C1036.7 608.49 1036 609.188 1036 610.049C1036 610.91 1036.7 611.608 1037.56 611.608C1038.42 611.608 1039.12 610.91 1039.12 610.049Z" fill="#017D25"/>
<path d="M1052.84 610.049C1052.84 609.188 1052.15 608.49 1051.28 608.49C1050.42 608.49 1049.72 609.188 1049.72 610.049C1049.72 610.91 1050.42 611.608 1051.28 611.608C1052.15 611.608 1052.84 610.91 1052.84 610.049Z" fill="#017D25"/>
<path d="M1066.57 610.049C1066.57 609.188 1065.87 608.49 1065.01 608.49C1064.15 608.49 1063.45 609.188 1063.45 610.049C1063.45 610.91 1064.15 611.608 1065.01 611.608C1065.87 611.608 1066.57 610.91 1066.57 610.049Z" fill="#017D25"/>
<path d="M1080.29 610.049C1080.29 609.188 1079.6 608.49 1078.74 608.49C1077.87 608.49 1077.18 609.188 1077.18 610.049C1077.18 610.91 1077.87 611.608 1078.74 611.608C1079.6 611.608 1080.29 610.91 1080.29 610.049Z" fill="#017D25"/>
<path d="M1094.02 610.049C1094.02 609.188 1093.32 608.49 1092.46 608.49C1091.6 608.49 1090.9 609.188 1090.9 610.049C1090.9 610.91 1091.6 611.608 1092.46 611.608C1093.32 611.608 1094.02 610.91 1094.02 610.049Z" fill="#017D25"/>
<path d="M1107.75 610.049C1107.75 609.188 1107.05 608.49 1106.19 608.49C1105.33 608.49 1104.63 609.188 1104.63 610.049C1104.63 610.91 1105.33 611.608 1106.19 611.608C1107.05 611.608 1107.75 610.91 1107.75 610.049Z" fill="#017D25"/>
<path d="M986.118 105.441C986.118 104.58 985.42 103.882 984.559 103.882C983.698 103.882 983 104.58 983 105.441C983 106.302 983.698 107 984.559 107C985.42 107 986.118 106.302 986.118 105.441Z" fill="#017D25"/>
<path d="M999.844 105.147C999.844 104.286 999.146 103.588 998.285 103.588C997.424 103.588 996.726 104.286 996.726 105.147C996.726 106.008 997.424 106.706 998.285 106.706C999.146 106.706 999.844 106.008 999.844 105.147Z" fill="#017D25"/>
<path d="M1013.57 105.147C1013.57 104.286 1012.87 103.588 1012.01 103.588C1011.15 103.588 1010.45 104.286 1010.45 105.147C1010.45 106.008 1011.15 106.706 1012.01 106.706C1012.87 106.706 1013.57 106.008 1013.57 105.147Z" fill="#017D25"/>
<path d="M1027.3 105.147C1027.3 104.286 1026.6 103.588 1025.74 103.588C1024.87 103.588 1024.18 104.286 1024.18 105.147C1024.18 106.008 1024.87 106.706 1025.74 106.706C1026.6 106.706 1027.3 106.008 1027.3 105.147Z" fill="#017D25"/>
<path d="M1041.02 105.147C1041.02 104.286 1040.32 103.588 1039.46 103.588C1038.6 103.588 1037.9 104.286 1037.9 105.147C1037.9 106.008 1038.6 106.706 1039.46 106.706C1040.32 106.706 1041.02 106.008 1041.02 105.147Z" fill="#017D25"/>
<path d="M1054.75 105.147C1054.75 104.286 1054.05 103.588 1053.19 103.588C1052.33 103.588 1051.63 104.286 1051.63 105.147C1051.63 106.008 1052.33 106.706 1053.19 106.706C1054.05 106.706 1054.75 106.008 1054.75 105.147Z" fill="#017D25"/>
<path d="M1068.47 105.147C1068.47 104.286 1067.77 103.588 1066.91 103.588C1066.05 103.588 1065.35 104.286 1065.35 105.147C1065.35 106.008 1066.05 106.706 1066.91 106.706C1067.77 106.706 1068.47 106.008 1068.47 105.147Z" fill="#017D25"/>
<path d="M1082.2 105.147C1082.2 104.286 1081.5 103.588 1080.64 103.588C1079.78 103.588 1079.08 104.286 1079.08 105.147C1079.08 106.008 1079.78 106.706 1080.64 106.706C1081.5 106.706 1082.2 106.008 1082.2 105.147Z" fill="#017D25"/>
<path d="M986.118 90.3426C986.118 89.4815 985.42 88.7834 984.559 88.7834C983.698 88.7834 983 89.4815 983 90.3426C983 91.2038 983.698 91.9018 984.559 91.9018C985.42 91.9018 986.118 91.2038 986.118 90.3426Z" fill="#017D25"/>
<path d="M999.844 90.0487C999.844 89.1875 999.146 88.4894 998.285 88.4894C997.424 88.4894 996.726 89.1875 996.726 90.0487C996.726 90.9098 997.424 91.6079 998.285 91.6079C999.146 91.6079 999.844 90.9098 999.844 90.0487Z" fill="#017D25"/>
<path d="M1013.57 90.0487C1013.57 89.1875 1012.87 88.4894 1012.01 88.4894C1011.15 88.4894 1010.45 89.1875 1010.45 90.0487C1010.45 90.9098 1011.15 91.6079 1012.01 91.6079C1012.87 91.6079 1013.57 90.9098 1013.57 90.0487Z" fill="#017D25"/>
<path d="M1027.3 90.0487C1027.3 89.1875 1026.6 88.4894 1025.74 88.4894C1024.87 88.4894 1024.18 89.1875 1024.18 90.0487C1024.18 90.9098 1024.87 91.6079 1025.74 91.6079C1026.6 91.6079 1027.3 90.9098 1027.3 90.0487Z" fill="#017D25"/>
<path d="M1041.02 90.0487C1041.02 89.1875 1040.32 88.4894 1039.46 88.4894C1038.6 88.4894 1037.9 89.1875 1037.9 90.0487C1037.9 90.9098 1038.6 91.6079 1039.46 91.6079C1040.32 91.6079 1041.02 90.9098 1041.02 90.0487Z" fill="#017D25"/>
<path d="M1054.75 90.0487C1054.75 89.1875 1054.05 88.4894 1053.19 88.4894C1052.33 88.4894 1051.63 89.1875 1051.63 90.0487C1051.63 90.9098 1052.33 91.6079 1053.19 91.6079C1054.05 91.6079 1054.75 90.9098 1054.75 90.0487Z" fill="#017D25"/>
<path d="M1068.47 90.0487C1068.47 89.1875 1067.77 88.4894 1066.91 88.4894C1066.05 88.4894 1065.35 89.1875 1065.35 90.0487C1065.35 90.9098 1066.05 91.6079 1066.91 91.6079C1067.77 91.6079 1068.47 90.9098 1068.47 90.0487Z" fill="#017D25"/>
<path d="M1082.2 90.0487C1082.2 89.1875 1081.5 88.4894 1080.64 88.4894C1079.78 88.4894 1079.08 89.1875 1079.08 90.0487C1079.08 90.9098 1079.78 91.6079 1080.64 91.6079C1081.5 91.6079 1082.2 90.9098 1082.2 90.0487Z" fill="#017D25"/>
<path d="M986.118 75.2449C986.118 74.3838 985.42 73.6857 984.559 73.6857C983.698 73.6857 983 74.3838 983 75.2449C983 76.1061 983.698 76.8042 984.559 76.8042C985.42 76.8042 986.118 76.1061 986.118 75.2449Z" fill="#017D25"/>
<path d="M999.844 74.951C999.844 74.0899 999.146 73.3918 998.285 73.3918C997.424 73.3918 996.726 74.0899 996.726 74.951C996.726 75.8121 997.424 76.5102 998.285 76.5102C999.146 76.5102 999.844 75.8121 999.844 74.951Z" fill="#017D25"/>
<path d="M1013.57 74.951C1013.57 74.0899 1012.87 73.3918 1012.01 73.3918C1011.15 73.3918 1010.45 74.0899 1010.45 74.951C1010.45 75.8121 1011.15 76.5102 1012.01 76.5102C1012.87 76.5102 1013.57 75.8121 1013.57 74.951Z" fill="#017D25"/>
<path d="M1027.3 74.951C1027.3 74.0899 1026.6 73.3918 1025.74 73.3918C1024.87 73.3918 1024.18 74.0899 1024.18 74.951C1024.18 75.8121 1024.87 76.5102 1025.74 76.5102C1026.6 76.5102 1027.3 75.8121 1027.3 74.951Z" fill="#017D25"/>
<path d="M1041.02 74.951C1041.02 74.0899 1040.32 73.3918 1039.46 73.3918C1038.6 73.3918 1037.9 74.0899 1037.9 74.951C1037.9 75.8121 1038.6 76.5102 1039.46 76.5102C1040.32 76.5102 1041.02 75.8121 1041.02 74.951Z" fill="#017D25"/>
<path d="M1054.75 74.951C1054.75 74.0899 1054.05 73.3918 1053.19 73.3918C1052.33 73.3918 1051.63 74.0899 1051.63 74.951C1051.63 75.8121 1052.33 76.5102 1053.19 76.5102C1054.05 76.5102 1054.75 75.8121 1054.75 74.951Z" fill="#017D25"/>
<path d="M1068.47 74.951C1068.47 74.0899 1067.77 73.3918 1066.91 73.3918C1066.05 73.3918 1065.35 74.0899 1065.35 74.951C1065.35 75.8121 1066.05 76.5102 1066.91 76.5102C1067.77 76.5102 1068.47 75.8121 1068.47 74.951Z" fill="#017D25"/>
<path d="M1082.2 74.951C1082.2 74.0899 1081.5 73.3918 1080.64 73.3918C1079.78 73.3918 1079.08 74.0899 1079.08 74.951C1079.08 75.8121 1079.78 76.5102 1080.64 76.5102C1081.5 76.5102 1082.2 75.8121 1082.2 74.951Z" fill="#017D25"/>
<path d="M986.118 59.8529C986.118 58.9917 985.42 58.2936 984.559 58.2936C983.698 58.2936 983 58.9917 983 59.8529C983 60.714 983.698 61.4121 984.559 61.4121C985.42 61.4121 986.118 60.714 986.118 59.8529Z" fill="#017D25"/>
<path d="M999.844 59.8529C999.844 58.9917 999.146 58.2936 998.285 58.2936C997.424 58.2936 996.726 58.9917 996.726 59.8529C996.726 60.714 997.424 61.4121 998.285 61.4121C999.146 61.4121 999.844 60.714 999.844 59.8529Z" fill="#017D25"/>
<path d="M1013.57 59.8529C1013.57 58.9917 1012.87 58.2936 1012.01 58.2936C1011.15 58.2936 1010.45 58.9917 1010.45 59.8529C1010.45 60.714 1011.15 61.4121 1012.01 61.4121C1012.87 61.4121 1013.57 60.714 1013.57 59.8529Z" fill="#017D25"/>
<path d="M1027.3 59.8529C1027.3 58.9917 1026.6 58.2936 1025.74 58.2936C1024.87 58.2936 1024.18 58.9917 1024.18 59.8529C1024.18 60.714 1024.87 61.4121 1025.74 61.4121C1026.6 61.4121 1027.3 60.714 1027.3 59.8529Z" fill="#017D25"/>
<path d="M1041.02 59.8529C1041.02 58.9917 1040.32 58.2936 1039.46 58.2936C1038.6 58.2936 1037.9 58.9917 1037.9 59.8529C1037.9 60.714 1038.6 61.4121 1039.46 61.4121C1040.32 61.4121 1041.02 60.714 1041.02 59.8529Z" fill="#017D25"/>
<path d="M1054.75 59.8529C1054.75 58.9917 1054.05 58.2936 1053.19 58.2936C1052.33 58.2936 1051.63 58.9917 1051.63 59.8529C1051.63 60.714 1052.33 61.4121 1053.19 61.4121C1054.05 61.4121 1054.75 60.714 1054.75 59.8529Z" fill="#017D25"/>
<path d="M1068.47 59.8529C1068.47 58.9917 1067.77 58.2936 1066.91 58.2936C1066.05 58.2936 1065.35 58.9917 1065.35 59.8529C1065.35 60.714 1066.05 61.4121 1066.91 61.4121C1067.77 61.4121 1068.47 60.714 1068.47 59.8529Z" fill="#017D25"/>
<path d="M1082.2 59.8529C1082.2 58.9917 1081.5 58.2936 1080.64 58.2936C1079.78 58.2936 1079.08 58.9917 1079.08 59.8529C1079.08 60.714 1079.78 61.4121 1080.64 61.4121C1081.5 61.4121 1082.2 60.714 1082.2 59.8529Z" fill="#017D25"/>
<path d="M986.118 44.7552C986.118 43.8941 985.42 43.196 984.559 43.196C983.698 43.196 983 43.8941 983 44.7552C983 45.6163 983.698 46.3144 984.559 46.3144C985.42 46.3144 986.118 45.6163 986.118 44.7552Z" fill="#017D25"/>
<path d="M999.844 44.7552C999.844 43.8941 999.146 43.196 998.285 43.196C997.424 43.196 996.726 43.8941 996.726 44.7552C996.726 45.6163 997.424 46.3144 998.285 46.3144C999.146 46.3144 999.844 45.6163 999.844 44.7552Z" fill="#017D25"/>
<path d="M1013.57 44.7552C1013.57 43.8941 1012.87 43.196 1012.01 43.196C1011.15 43.196 1010.45 43.8941 1010.45 44.7552C1010.45 45.6163 1011.15 46.3144 1012.01 46.3144C1012.87 46.3144 1013.57 45.6163 1013.57 44.7552Z" fill="#017D25"/>
<path d="M1027.3 44.7552C1027.3 43.8941 1026.6 43.196 1025.74 43.196C1024.87 43.196 1024.18 43.8941 1024.18 44.7552C1024.18 45.6163 1024.87 46.3144 1025.74 46.3144C1026.6 46.3144 1027.3 45.6163 1027.3 44.7552Z" fill="#017D25"/>
<path d="M1041.02 44.7552C1041.02 43.8941 1040.32 43.196 1039.46 43.196C1038.6 43.196 1037.9 43.8941 1037.9 44.7552C1037.9 45.6163 1038.6 46.3144 1039.46 46.3144C1040.32 46.3144 1041.02 45.6163 1041.02 44.7552Z" fill="#017D25"/>
<path d="M1054.75 44.7552C1054.75 43.8941 1054.05 43.196 1053.19 43.196C1052.33 43.196 1051.63 43.8941 1051.63 44.7552C1051.63 45.6163 1052.33 46.3144 1053.19 46.3144C1054.05 46.3144 1054.75 45.6163 1054.75 44.7552Z" fill="#017D25"/>
<path d="M1068.47 44.7552C1068.47 43.8941 1067.77 43.196 1066.91 43.196C1066.05 43.196 1065.35 43.8941 1065.35 44.7552C1065.35 45.6163 1066.05 46.3144 1066.91 46.3144C1067.77 46.3144 1068.47 45.6163 1068.47 44.7552Z" fill="#017D25"/>
<path d="M1082.2 44.7552C1082.2 43.8941 1081.5 43.196 1080.64 43.196C1079.78 43.196 1079.08 43.8941 1079.08 44.7552C1079.08 45.6163 1079.78 46.3144 1080.64 46.3144C1081.5 46.3144 1082.2 45.6163 1082.2 44.7552Z" fill="#017D25"/>
<path d="M986.118 29.6571C986.118 28.7959 985.42 28.0978 984.559 28.0978C983.698 28.0978 983 28.7959 983 29.6571C983 30.5182 983.698 31.2163 984.559 31.2163C985.42 31.2163 986.118 30.5182 986.118 29.6571Z" fill="#017D25"/>
<path d="M999.844 29.6571C999.844 28.7959 999.146 28.0978 998.285 28.0978C997.424 28.0978 996.726 28.7959 996.726 29.6571C996.726 30.5182 997.424 31.2163 998.285 31.2163C999.146 31.2163 999.844 30.5182 999.844 29.6571Z" fill="#017D25"/>
<path d="M1013.57 29.6571C1013.57 28.7959 1012.87 28.0978 1012.01 28.0978C1011.15 28.0978 1010.45 28.7959 1010.45 29.6571C1010.45 30.5182 1011.15 31.2163 1012.01 31.2163C1012.87 31.2163 1013.57 30.5182 1013.57 29.6571Z" fill="#017D25"/>
<path d="M1027.3 29.6571C1027.3 28.7959 1026.6 28.0978 1025.74 28.0978C1024.87 28.0978 1024.18 28.7959 1024.18 29.6571C1024.18 30.5182 1024.87 31.2163 1025.74 31.2163C1026.6 31.2163 1027.3 30.5182 1027.3 29.6571Z" fill="#017D25"/>
<path d="M1041.02 29.6571C1041.02 28.7959 1040.32 28.0978 1039.46 28.0978C1038.6 28.0978 1037.9 28.7959 1037.9 29.6571C1037.9 30.5182 1038.6 31.2163 1039.46 31.2163C1040.32 31.2163 1041.02 30.5182 1041.02 29.6571Z" fill="#017D25"/>
<path d="M1054.75 29.6571C1054.75 28.7959 1054.05 28.0978 1053.19 28.0978C1052.33 28.0978 1051.63 28.7959 1051.63 29.6571C1051.63 30.5182 1052.33 31.2163 1053.19 31.2163C1054.05 31.2163 1054.75 30.5182 1054.75 29.6571Z" fill="#017D25"/>
<path d="M1068.47 29.6571C1068.47 28.7959 1067.77 28.0978 1066.91 28.0978C1066.05 28.0978 1065.35 28.7959 1065.35 29.6571C1065.35 30.5182 1066.05 31.2163 1066.91 31.2163C1067.77 31.2163 1068.47 30.5182 1068.47 29.6571Z" fill="#017D25"/>
<path d="M1082.2 29.6571C1082.2 28.7959 1081.5 28.0978 1080.64 28.0978C1079.78 28.0978 1079.08 28.7959 1079.08 29.6571C1079.08 30.5182 1079.78 31.2163 1080.64 31.2163C1081.5 31.2163 1082.2 30.5182 1082.2 29.6571Z" fill="#017D25"/>
<path d="M986.118 14.5594C986.118 13.6983 985.42 13.0002 984.559 13.0002C983.698 13.0002 983 13.6983 983 14.5594C983 15.4205 983.698 16.1186 984.559 16.1186C985.42 16.1186 986.118 15.4205 986.118 14.5594Z" fill="#017D25"/>
<path d="M999.844 14.5594C999.844 13.6983 999.146 13.0002 998.285 13.0002C997.424 13.0002 996.726 13.6983 996.726 14.5594C996.726 15.4205 997.424 16.1186 998.285 16.1186C999.146 16.1186 999.844 15.4205 999.844 14.5594Z" fill="#017D25"/>
<path d="M1013.57 14.5594C1013.57 13.6983 1012.87 13.0002 1012.01 13.0002C1011.15 13.0002 1010.45 13.6983 1010.45 14.5594C1010.45 15.4205 1011.15 16.1186 1012.01 16.1186C1012.87 16.1186 1013.57 15.4205 1013.57 14.5594Z" fill="#017D25"/>
<path d="M1027.3 14.5594C1027.3 13.6983 1026.6 13.0002 1025.74 13.0002C1024.87 13.0002 1024.18 13.6983 1024.18 14.5594C1024.18 15.4205 1024.87 16.1186 1025.74 16.1186C1026.6 16.1186 1027.3 15.4205 1027.3 14.5594Z" fill="#017D25"/>
<path d="M1041.02 14.5594C1041.02 13.6983 1040.32 13.0002 1039.46 13.0002C1038.6 13.0002 1037.9 13.6983 1037.9 14.5594C1037.9 15.4205 1038.6 16.1186 1039.46 16.1186C1040.32 16.1186 1041.02 15.4205 1041.02 14.5594Z" fill="#017D25"/>
<path d="M1054.75 14.5594C1054.75 13.6983 1054.05 13.0002 1053.19 13.0002C1052.33 13.0002 1051.63 13.6983 1051.63 14.5594C1051.63 15.4205 1052.33 16.1186 1053.19 16.1186C1054.05 16.1186 1054.75 15.4205 1054.75 14.5594Z" fill="#017D25"/>
<path d="M1068.47 14.5594C1068.47 13.6983 1067.77 13.0002 1066.91 13.0002C1066.05 13.0002 1065.35 13.6983 1065.35 14.5594C1065.35 15.4205 1066.05 16.1186 1066.91 16.1186C1067.77 16.1186 1068.47 15.4205 1068.47 14.5594Z" fill="#017D25"/>
<path d="M1082.2 14.5594C1082.2 13.6983 1081.5 13.0002 1080.64 13.0002C1079.78 13.0002 1079.08 13.6983 1079.08 14.5594C1079.08 15.4205 1079.78 16.1186 1080.64 16.1186C1081.5 16.1186 1082.2 15.4205 1082.2 14.5594Z" fill="#017D25"/>
<path d="M3.17302 456.591C3.17302 457.47 2.46272 458.182 1.58651 458.182C0.710306 458.182 0 457.47 0 456.591C0 455.712 0.710306 455 1.58651 455C2.46272 455 3.17302 455.712 3.17302 456.591Z" fill="#4CB029"/>
<path d="M17.1386 456.591C17.1386 457.47 16.4283 458.182 15.5521 458.182C14.6759 458.182 13.9656 457.47 13.9656 456.591C13.9656 455.712 14.6759 455 15.5521 455C16.4283 455 17.1386 455.712 17.1386 456.591Z" fill="#4CB029"/>
<path d="M31.1032 456.591C31.1032 457.47 30.3929 458.182 29.5167 458.182C28.6405 458.182 27.9302 457.47 27.9302 456.591C27.9302 455.712 28.6405 455 29.5167 455C30.3929 455 31.1032 455.712 31.1032 456.591Z" fill="#4CB029"/>
<path d="M45.0698 456.591C45.0698 457.47 44.3595 458.182 43.4833 458.182C42.6071 458.182 41.8968 457.47 41.8968 456.591C41.8968 455.712 42.6071 455 43.4833 455C44.3595 455 45.0698 455.712 45.0698 456.591Z" fill="#4CB029"/>
<path d="M59.0344 456.591C59.0344 457.47 58.3241 458.182 57.4479 458.182C56.5717 458.182 55.8614 457.47 55.8614 456.591C55.8614 455.712 56.5717 455 57.4479 455C58.3241 455 59.0344 455.712 59.0344 456.591Z" fill="#4CB029"/>
<path d="M73 456.591C73 457.47 72.2897 458.182 71.4135 458.182C70.5373 458.182 69.827 457.47 69.827 456.591C69.827 455.712 70.5373 455 71.4135 455C72.2897 455 73 455.712 73 456.591Z" fill="#4CB029"/>
<path d="M3.17302 471.996C3.17302 472.874 2.46272 473.587 1.58651 473.587C0.710306 473.587 0 472.874 0 471.996C0 471.117 0.710306 470.405 1.58651 470.405C2.46272 470.405 3.17302 471.117 3.17302 471.996Z" fill="#4CB029"/>
<path d="M17.1386 471.996C17.1386 472.874 16.4283 473.587 15.5521 473.587C14.6759 473.587 13.9656 472.874 13.9656 471.996C13.9656 471.117 14.6759 470.405 15.5521 470.405C16.4283 470.405 17.1386 471.117 17.1386 471.996Z" fill="#4CB029"/>
<path d="M31.1032 471.996C31.1032 472.874 30.3929 473.587 29.5167 473.587C28.6405 473.587 27.9302 472.874 27.9302 471.996C27.9302 471.117 28.6405 470.405 29.5167 470.405C30.3929 470.405 31.1032 471.117 31.1032 471.996Z" fill="#4CB029"/>
<path d="M45.0698 471.996C45.0698 472.874 44.3595 473.587 43.4833 473.587C42.6071 473.587 41.8968 472.874 41.8968 471.996C41.8968 471.117 42.6071 470.405 43.4833 470.405C44.3595 470.405 45.0698 471.117 45.0698 471.996Z" fill="#4CB029"/>
<path d="M59.0344 471.996C59.0344 472.874 58.3241 473.587 57.4479 473.587C56.5717 473.587 55.8614 472.874 55.8614 471.996C55.8614 471.117 56.5717 470.405 57.4479 470.405C58.3241 470.405 59.0344 471.117 59.0344 471.996Z" fill="#4CB029"/>
<path d="M73 471.996C73 472.874 72.2897 473.587 71.4135 473.587C70.5373 473.587 69.827 472.874 69.827 471.996C69.827 471.117 70.5373 470.405 71.4135 470.405C72.2897 470.405 73 471.117 73 471.996Z" fill="#4CB029"/>
<path d="M3.17302 487.4C3.17302 488.279 2.46272 488.991 1.58651 488.991C0.710306 488.991 0 488.279 0 487.4C0 486.521 0.710306 485.809 1.58651 485.809C2.46272 485.809 3.17302 486.521 3.17302 487.4Z" fill="#4CB029"/>
<path d="M17.1386 487.6C17.1386 488.479 16.4283 489.191 15.5521 489.191C14.6759 489.191 13.9656 488.479 13.9656 487.6C13.9656 486.721 14.6759 486.009 15.5521 486.009C16.4283 486.009 17.1386 486.721 17.1386 487.6Z" fill="#4CB029"/>
<path d="M31.1032 487.6C31.1032 488.479 30.3929 489.191 29.5167 489.191C28.6405 489.191 27.9302 488.479 27.9302 487.6C27.9302 486.721 28.6405 486.009 29.5167 486.009C30.3929 486.009 31.1032 486.721 31.1032 487.6Z" fill="#4CB029"/>
<path d="M45.0698 487.6C45.0698 488.479 44.3595 489.191 43.4833 489.191C42.6071 489.191 41.8968 488.479 41.8968 487.6C41.8968 486.721 42.6071 486.009 43.4833 486.009C44.3595 486.009 45.0698 486.721 45.0698 487.6Z" fill="#4CB029"/>
<path d="M59.0344 487.6C59.0344 488.479 58.3241 489.191 57.4479 489.191C56.5717 489.191 55.8614 488.479 55.8614 487.6C55.8614 486.721 56.5717 486.009 57.4479 486.009C58.3241 486.009 59.0344 486.721 59.0344 487.6Z" fill="#4CB029"/>
<path d="M73 487.6C73 488.479 72.2897 489.191 71.4135 489.191C70.5373 489.191 69.827 488.479 69.827 487.6C69.827 486.721 70.5373 486.009 71.4135 486.009C72.2897 486.009 73 486.721 73 487.6Z" fill="#4CB029"/>
<path d="M3.17302 503.005C3.17302 503.883 2.46272 504.596 1.58651 504.596C0.710306 504.596 0 503.883 0 503.005C0 502.126 0.710306 501.414 1.58651 501.414C2.46272 501.414 3.17302 502.126 3.17302 503.005Z" fill="#4CB029"/>
<path d="M17.1386 503.005C17.1386 503.883 16.4283 504.596 15.5521 504.596C14.6759 504.596 13.9656 503.883 13.9656 503.005C13.9656 502.126 14.6759 501.414 15.5521 501.414C16.4283 501.414 17.1386 502.126 17.1386 503.005Z" fill="#4CB029"/>
<path d="M31.1032 503.005C31.1032 503.883 30.3929 504.596 29.5167 504.596C28.6405 504.596 27.9302 503.883 27.9302 503.005C27.9302 502.126 28.6405 501.414 29.5167 501.414C30.3929 501.414 31.1032 502.126 31.1032 503.005Z" fill="#4CB029"/>
<path d="M45.0698 503.005C45.0698 503.883 44.3595 504.596 43.4833 504.596C42.6071 504.596 41.8968 503.883 41.8968 503.005C41.8968 502.126 42.6071 501.414 43.4833 501.414C44.3595 501.414 45.0698 502.126 45.0698 503.005Z" fill="#4CB029"/>
<path d="M59.0344 503.005C59.0344 503.883 58.3241 504.596 57.4479 504.596C56.5717 504.596 55.8614 503.883 55.8614 503.005C55.8614 502.126 56.5717 501.414 57.4479 501.414C58.3241 501.414 59.0344 502.126 59.0344 503.005Z" fill="#4CB029"/>
<path d="M73 503.005C73 503.883 72.2897 504.596 71.4135 504.596C70.5373 504.596 69.827 503.883 69.827 503.005C69.827 502.126 70.5373 501.414 71.4135 501.414C72.2897 501.414 73 502.126 73 503.005Z" fill="#4CB029"/>
<path d="M3.17302 518.409C3.17302 519.288 2.46272 520 1.58651 520C0.710306 520 0 519.288 0 518.409C0 517.53 0.710306 516.818 1.58651 516.818C2.46272 516.818 3.17302 517.53 3.17302 518.409Z" fill="#4CB029"/>
<path d="M17.1386 518.409C17.1386 519.288 16.4283 520 15.5521 520C14.6759 520 13.9656 519.288 13.9656 518.409C13.9656 517.53 14.6759 516.818 15.5521 516.818C16.4283 516.818 17.1386 517.53 17.1386 518.409Z" fill="#4CB029"/>
<path d="M31.1032 518.409C31.1032 519.288 30.3929 520 29.5167 520C28.6405 520 27.9302 519.288 27.9302 518.409C27.9302 517.53 28.6405 516.818 29.5167 516.818C30.3929 516.818 31.1032 517.53 31.1032 518.409Z" fill="#4CB029"/>
<path d="M45.0698 518.409C45.0698 519.288 44.3595 520 43.4833 520C42.6071 520 41.8968 519.288 41.8968 518.409C41.8968 517.53 42.6071 516.818 43.4833 516.818C44.3595 516.818 45.0698 517.53 45.0698 518.409Z" fill="#4CB029"/>
<path d="M59.0344 518.409C59.0344 519.288 58.3241 520 57.4479 520C56.5717 520 55.8614 519.288 55.8614 518.409C55.8614 517.53 56.5717 516.818 57.4479 516.818C58.3241 516.818 59.0344 517.53 59.0344 518.409Z" fill="#4CB029"/>
<path d="M73 518.409C73 519.288 72.2897 520 71.4135 520C70.5373 520 69.827 519.288 69.827 518.409C69.827 517.53 70.5373 516.818 71.4135 516.818C72.2897 516.818 73 517.53 73 518.409Z" fill="#4CB029"/>
</svg>
